<mxfile host="app.diagrams.net" modified="2022-06-10T08:39:06.205Z" agent="5.0 (Macintosh; Intel Mac OS X 10_15_7) AppleWebKit/605.1.15 (KHTML, like Gecko) Version/15.5 Safari/605.1.15" etag="HSm0vqPRO1V3Vg0pNktz" version="19.0.3" type="github">
  <diagram id="R2lEEEUBdFMjLlhIrx00" name="Page-1">
    <mxGraphModel dx="1551" dy="1046" grid="1" gridSize="10" guides="1" tooltips="1" connect="1" arrows="1" fold="1" page="1" pageScale="1" pageWidth="850" pageHeight="1100" math="0" shadow="0" extFonts="Permanent Marker^https://fonts.googleapis.com/css?family=Permanent+Marker">
      <root>
        <mxCell id="0" />
        <mxCell id="1" parent="0" />
        <mxCell id="C-vyLk0tnHw3VtMMgP7b-23" value="BUSINESS UNIT" style="shape=table;startSize=30;container=1;collapsible=1;childLayout=tableLayout;fixedRows=1;rowLines=0;fontStyle=1;align=center;resizeLast=1;fillColor=#fff2cc;strokeColor=#d6b656;" parent="1" vertex="1">
          <mxGeometry x="50" y="80" width="210" height="100" as="geometry" />
        </mxCell>
        <mxCell id="C-vyLk0tnHw3VtMMgP7b-24" value="" style="shape=partialRectangle;collapsible=0;dropTarget=0;pointerEvents=0;fillColor=none;points=[[0,0.5],[1,0.5]];portConstraint=eastwest;top=0;left=0;right=0;bottom=1;" parent="C-vyLk0tnHw3VtMMgP7b-23" vertex="1">
          <mxGeometry y="30" width="210" height="30" as="geometry" />
        </mxCell>
        <mxCell id="C-vyLk0tnHw3VtMMgP7b-25" value="PK" style="shape=partialRectangle;overflow=hidden;connectable=0;fillColor=none;top=0;left=0;bottom=0;right=0;fontStyle=1;" parent="C-vyLk0tnHw3VtMMgP7b-24" vertex="1">
          <mxGeometry width="30" height="30" as="geometry">
            <mxRectangle width="30" height="30" as="alternateBounds" />
          </mxGeometry>
        </mxCell>
        <mxCell id="C-vyLk0tnHw3VtMMgP7b-26" value="Business Unit Code" style="shape=partialRectangle;overflow=hidden;connectable=0;fillColor=none;top=0;left=0;bottom=0;right=0;align=left;spacingLeft=6;fontStyle=5;" parent="C-vyLk0tnHw3VtMMgP7b-24" vertex="1">
          <mxGeometry x="30" width="180" height="30" as="geometry">
            <mxRectangle width="180" height="30" as="alternateBounds" />
          </mxGeometry>
        </mxCell>
        <mxCell id="C-vyLk0tnHw3VtMMgP7b-27" value="" style="shape=partialRectangle;collapsible=0;dropTarget=0;pointerEvents=0;fillColor=none;points=[[0,0.5],[1,0.5]];portConstraint=eastwest;top=0;left=0;right=0;bottom=0;" parent="C-vyLk0tnHw3VtMMgP7b-23" vertex="1">
          <mxGeometry y="60" width="210" height="30" as="geometry" />
        </mxCell>
        <mxCell id="C-vyLk0tnHw3VtMMgP7b-28" value="" style="shape=partialRectangle;overflow=hidden;connectable=0;fillColor=none;top=0;left=0;bottom=0;right=0;" parent="C-vyLk0tnHw3VtMMgP7b-27" vertex="1">
          <mxGeometry width="30" height="30" as="geometry">
            <mxRectangle width="30" height="30" as="alternateBounds" />
          </mxGeometry>
        </mxCell>
        <mxCell id="C-vyLk0tnHw3VtMMgP7b-29" value="Business Unit Description&#xa;Business Unit Entity " style="shape=partialRectangle;overflow=hidden;connectable=0;fillColor=none;top=0;left=0;bottom=0;right=0;align=left;spacingLeft=6;" parent="C-vyLk0tnHw3VtMMgP7b-27" vertex="1">
          <mxGeometry x="30" width="180" height="30" as="geometry">
            <mxRectangle width="180" height="30" as="alternateBounds" />
          </mxGeometry>
        </mxCell>
        <mxCell id="8IbYY3N8ssp3eKRdi6eT-29" value="PRODUCT" style="shape=table;startSize=30;container=1;collapsible=1;childLayout=tableLayout;fixedRows=1;rowLines=0;fontStyle=1;align=center;resizeLast=1;fillColor=#fff2cc;strokeColor=#d6b656;" parent="1" vertex="1">
          <mxGeometry x="980" y="50" width="210" height="140" as="geometry" />
        </mxCell>
        <mxCell id="8IbYY3N8ssp3eKRdi6eT-30" value="" style="shape=partialRectangle;collapsible=0;dropTarget=0;pointerEvents=0;fillColor=none;points=[[0,0.5],[1,0.5]];portConstraint=eastwest;top=0;left=0;right=0;bottom=1;" parent="8IbYY3N8ssp3eKRdi6eT-29" vertex="1">
          <mxGeometry y="30" width="210" height="30" as="geometry" />
        </mxCell>
        <mxCell id="8IbYY3N8ssp3eKRdi6eT-31" value="PK" style="shape=partialRectangle;overflow=hidden;connectable=0;fillColor=none;top=0;left=0;bottom=0;right=0;fontStyle=1;" parent="8IbYY3N8ssp3eKRdi6eT-30" vertex="1">
          <mxGeometry width="30" height="30" as="geometry">
            <mxRectangle width="30" height="30" as="alternateBounds" />
          </mxGeometry>
        </mxCell>
        <mxCell id="8IbYY3N8ssp3eKRdi6eT-32" value="ProductID" style="shape=partialRectangle;overflow=hidden;connectable=0;fillColor=none;top=0;left=0;bottom=0;right=0;align=left;spacingLeft=6;fontStyle=5;" parent="8IbYY3N8ssp3eKRdi6eT-30" vertex="1">
          <mxGeometry x="30" width="180" height="30" as="geometry">
            <mxRectangle width="180" height="30" as="alternateBounds" />
          </mxGeometry>
        </mxCell>
        <mxCell id="8IbYY3N8ssp3eKRdi6eT-33" value="" style="shape=partialRectangle;collapsible=0;dropTarget=0;pointerEvents=0;fillColor=none;points=[[0,0.5],[1,0.5]];portConstraint=eastwest;top=0;left=0;right=0;bottom=0;" parent="8IbYY3N8ssp3eKRdi6eT-29" vertex="1">
          <mxGeometry y="60" width="210" height="70" as="geometry" />
        </mxCell>
        <mxCell id="8IbYY3N8ssp3eKRdi6eT-34" value="" style="shape=partialRectangle;overflow=hidden;connectable=0;fillColor=none;top=0;left=0;bottom=0;right=0;" parent="8IbYY3N8ssp3eKRdi6eT-33" vertex="1">
          <mxGeometry width="30" height="70" as="geometry">
            <mxRectangle width="30" height="70" as="alternateBounds" />
          </mxGeometry>
        </mxCell>
        <mxCell id="8IbYY3N8ssp3eKRdi6eT-35" value="Product Code&#xa;Product Code Description&#xa;Product Code Status&#xa;Product Type Code&#xa;Product Type Description " style="shape=partialRectangle;overflow=hidden;connectable=0;fillColor=none;top=0;left=0;bottom=0;right=0;align=left;spacingLeft=6;" parent="8IbYY3N8ssp3eKRdi6eT-33" vertex="1">
          <mxGeometry x="30" width="180" height="70" as="geometry">
            <mxRectangle width="180" height="70" as="alternateBounds" />
          </mxGeometry>
        </mxCell>
        <mxCell id="yaBfs6Ev_ooIMC5RrYii-82" style="edgeStyle=orthogonalEdgeStyle;rounded=0;orthogonalLoop=1;jettySize=auto;html=1;exitX=0.75;exitY=1;exitDx=0;exitDy=0;fontSize=11;endArrow=oval;endFill=0;" edge="1" parent="1" source="8IbYY3N8ssp3eKRdi6eT-49" target="yaBfs6Ev_ooIMC5RrYii-51">
          <mxGeometry relative="1" as="geometry">
            <Array as="points">
              <mxPoint x="227" y="580" />
              <mxPoint x="227" y="580" />
            </Array>
          </mxGeometry>
        </mxCell>
        <mxCell id="8IbYY3N8ssp3eKRdi6eT-49" value="CUSTOMER" style="shape=table;startSize=30;container=1;collapsible=1;childLayout=tableLayout;fixedRows=1;rowLines=0;fontStyle=1;align=center;resizeLast=1;fillColor=#fff2cc;strokeColor=#d6b656;" parent="1" vertex="1">
          <mxGeometry x="70" y="230" width="210" height="160" as="geometry" />
        </mxCell>
        <mxCell id="8IbYY3N8ssp3eKRdi6eT-50" value="" style="shape=partialRectangle;collapsible=0;dropTarget=0;pointerEvents=0;fillColor=none;points=[[0,0.5],[1,0.5]];portConstraint=eastwest;top=0;left=0;right=0;bottom=1;" parent="8IbYY3N8ssp3eKRdi6eT-49" vertex="1">
          <mxGeometry y="30" width="210" height="30" as="geometry" />
        </mxCell>
        <mxCell id="8IbYY3N8ssp3eKRdi6eT-51" value="PK" style="shape=partialRectangle;overflow=hidden;connectable=0;fillColor=none;top=0;left=0;bottom=0;right=0;fontStyle=1;" parent="8IbYY3N8ssp3eKRdi6eT-50" vertex="1">
          <mxGeometry width="30" height="30" as="geometry">
            <mxRectangle width="30" height="30" as="alternateBounds" />
          </mxGeometry>
        </mxCell>
        <mxCell id="8IbYY3N8ssp3eKRdi6eT-52" value="CustomerID" style="shape=partialRectangle;overflow=hidden;connectable=0;fillColor=none;top=0;left=0;bottom=0;right=0;align=left;spacingLeft=6;fontStyle=5;" parent="8IbYY3N8ssp3eKRdi6eT-50" vertex="1">
          <mxGeometry x="30" width="180" height="30" as="geometry">
            <mxRectangle width="180" height="30" as="alternateBounds" />
          </mxGeometry>
        </mxCell>
        <mxCell id="8IbYY3N8ssp3eKRdi6eT-53" value="" style="shape=partialRectangle;collapsible=0;dropTarget=0;pointerEvents=0;fillColor=none;points=[[0,0.5],[1,0.5]];portConstraint=eastwest;top=0;left=0;right=0;bottom=0;" parent="8IbYY3N8ssp3eKRdi6eT-49" vertex="1">
          <mxGeometry y="60" width="210" height="90" as="geometry" />
        </mxCell>
        <mxCell id="8IbYY3N8ssp3eKRdi6eT-54" value="" style="shape=partialRectangle;overflow=hidden;connectable=0;fillColor=none;top=0;left=0;bottom=0;right=0;" parent="8IbYY3N8ssp3eKRdi6eT-53" vertex="1">
          <mxGeometry width="30" height="90" as="geometry">
            <mxRectangle width="30" height="90" as="alternateBounds" />
          </mxGeometry>
        </mxCell>
        <mxCell id="8IbYY3N8ssp3eKRdi6eT-55" value="Customer Code&#xa;Customer Name&#xa;Date of Birth&#xa;Gender&#xa;Home Postcode&#xa;Registered for Digital " style="shape=partialRectangle;overflow=hidden;connectable=0;fillColor=none;top=0;left=0;bottom=0;right=0;align=left;spacingLeft=6;verticalAlign=top;" parent="8IbYY3N8ssp3eKRdi6eT-53" vertex="1">
          <mxGeometry x="30" width="180" height="90" as="geometry">
            <mxRectangle width="180" height="90" as="alternateBounds" />
          </mxGeometry>
        </mxCell>
        <mxCell id="8IbYY3N8ssp3eKRdi6eT-56" value="CALENDAR DATE" style="shape=table;startSize=30;container=1;collapsible=1;childLayout=tableLayout;fixedRows=1;rowLines=0;fontStyle=1;align=center;resizeLast=1;fillColor=#fff2cc;strokeColor=#d6b656;" parent="1" vertex="1">
          <mxGeometry x="830" y="840" width="210" height="160" as="geometry" />
        </mxCell>
        <mxCell id="8IbYY3N8ssp3eKRdi6eT-57" value="" style="shape=partialRectangle;collapsible=0;dropTarget=0;pointerEvents=0;fillColor=none;points=[[0,0.5],[1,0.5]];portConstraint=eastwest;top=0;left=0;right=0;bottom=1;" parent="8IbYY3N8ssp3eKRdi6eT-56" vertex="1">
          <mxGeometry y="30" width="210" height="30" as="geometry" />
        </mxCell>
        <mxCell id="8IbYY3N8ssp3eKRdi6eT-58" value="PK" style="shape=partialRectangle;overflow=hidden;connectable=0;fillColor=none;top=0;left=0;bottom=0;right=0;fontStyle=1;" parent="8IbYY3N8ssp3eKRdi6eT-57" vertex="1">
          <mxGeometry width="30" height="30" as="geometry">
            <mxRectangle width="30" height="30" as="alternateBounds" />
          </mxGeometry>
        </mxCell>
        <mxCell id="8IbYY3N8ssp3eKRdi6eT-59" value="DateID" style="shape=partialRectangle;overflow=hidden;connectable=0;fillColor=none;top=0;left=0;bottom=0;right=0;align=left;spacingLeft=6;fontStyle=5;" parent="8IbYY3N8ssp3eKRdi6eT-57" vertex="1">
          <mxGeometry x="30" width="180" height="30" as="geometry">
            <mxRectangle width="180" height="30" as="alternateBounds" />
          </mxGeometry>
        </mxCell>
        <mxCell id="8IbYY3N8ssp3eKRdi6eT-60" value="" style="shape=partialRectangle;collapsible=0;dropTarget=0;pointerEvents=0;fillColor=none;points=[[0,0.5],[1,0.5]];portConstraint=eastwest;top=0;left=0;right=0;bottom=0;" parent="8IbYY3N8ssp3eKRdi6eT-56" vertex="1">
          <mxGeometry y="60" width="210" height="90" as="geometry" />
        </mxCell>
        <mxCell id="8IbYY3N8ssp3eKRdi6eT-61" value="" style="shape=partialRectangle;overflow=hidden;connectable=0;fillColor=none;top=0;left=0;bottom=0;right=0;" parent="8IbYY3N8ssp3eKRdi6eT-60" vertex="1">
          <mxGeometry width="30" height="90" as="geometry">
            <mxRectangle width="30" height="90" as="alternateBounds" />
          </mxGeometry>
        </mxCell>
        <mxCell id="8IbYY3N8ssp3eKRdi6eT-62" value="Date &#xa;Day &#xa;Month &#xa;Year &#xa;Reporting Month &#xa;Reporting Year " style="shape=partialRectangle;overflow=hidden;connectable=0;fillColor=none;top=0;left=0;bottom=0;right=0;align=left;spacingLeft=6;verticalAlign=top;" parent="8IbYY3N8ssp3eKRdi6eT-60" vertex="1">
          <mxGeometry x="30" width="180" height="90" as="geometry">
            <mxRectangle width="180" height="90" as="alternateBounds" />
          </mxGeometry>
        </mxCell>
        <mxCell id="8IbYY3N8ssp3eKRdi6eT-63" value="CUSTOMER JOURNEY" style="shape=table;startSize=30;container=1;collapsible=1;childLayout=tableLayout;fixedRows=1;rowLines=0;fontStyle=1;align=center;resizeLast=1;fillColor=#fff2cc;strokeColor=#d6b656;" parent="1" vertex="1">
          <mxGeometry x="1050" y="620" width="220" height="150" as="geometry" />
        </mxCell>
        <mxCell id="8IbYY3N8ssp3eKRdi6eT-64" value="" style="shape=partialRectangle;collapsible=0;dropTarget=0;pointerEvents=0;fillColor=none;points=[[0,0.5],[1,0.5]];portConstraint=eastwest;top=0;left=0;right=0;bottom=1;" parent="8IbYY3N8ssp3eKRdi6eT-63" vertex="1">
          <mxGeometry y="30" width="220" height="30" as="geometry" />
        </mxCell>
        <mxCell id="8IbYY3N8ssp3eKRdi6eT-65" value="PK" style="shape=partialRectangle;overflow=hidden;connectable=0;fillColor=none;top=0;left=0;bottom=0;right=0;fontStyle=1;" parent="8IbYY3N8ssp3eKRdi6eT-64" vertex="1">
          <mxGeometry width="30" height="30" as="geometry">
            <mxRectangle width="30" height="30" as="alternateBounds" />
          </mxGeometry>
        </mxCell>
        <mxCell id="8IbYY3N8ssp3eKRdi6eT-66" value="CustomerJourneyID" style="shape=partialRectangle;overflow=hidden;connectable=0;fillColor=none;top=0;left=0;bottom=0;right=0;align=left;spacingLeft=6;fontStyle=5;" parent="8IbYY3N8ssp3eKRdi6eT-64" vertex="1">
          <mxGeometry x="30" width="190" height="30" as="geometry">
            <mxRectangle width="190" height="30" as="alternateBounds" />
          </mxGeometry>
        </mxCell>
        <mxCell id="8IbYY3N8ssp3eKRdi6eT-67" value="" style="shape=partialRectangle;collapsible=0;dropTarget=0;pointerEvents=0;fillColor=none;points=[[0,0.5],[1,0.5]];portConstraint=eastwest;top=0;left=0;right=0;bottom=0;" parent="8IbYY3N8ssp3eKRdi6eT-63" vertex="1">
          <mxGeometry y="60" width="220" height="90" as="geometry" />
        </mxCell>
        <mxCell id="8IbYY3N8ssp3eKRdi6eT-68" value="" style="shape=partialRectangle;overflow=hidden;connectable=0;fillColor=none;top=0;left=0;bottom=0;right=0;" parent="8IbYY3N8ssp3eKRdi6eT-67" vertex="1">
          <mxGeometry width="30" height="90" as="geometry">
            <mxRectangle width="30" height="90" as="alternateBounds" />
          </mxGeometry>
        </mxCell>
        <mxCell id="8IbYY3N8ssp3eKRdi6eT-69" value="Customer Journey Code &#xa;Customer Journey Description &#xa;Customer Journey Second Descr " style="shape=partialRectangle;overflow=hidden;connectable=0;fillColor=none;top=0;left=0;bottom=0;right=0;align=left;spacingLeft=6;verticalAlign=top;" parent="8IbYY3N8ssp3eKRdi6eT-67" vertex="1">
          <mxGeometry x="30" width="190" height="90" as="geometry">
            <mxRectangle width="190" height="90" as="alternateBounds" />
          </mxGeometry>
        </mxCell>
        <mxCell id="8IbYY3N8ssp3eKRdi6eT-83" value="VULNERABILITY" style="shape=table;startSize=30;container=1;collapsible=1;childLayout=tableLayout;fixedRows=1;rowLines=0;fontStyle=1;align=center;resizeLast=1;fillColor=#d5e8d4;strokeColor=#82b366;" parent="1" vertex="1">
          <mxGeometry x="381" y="80" width="210" height="220" as="geometry" />
        </mxCell>
        <mxCell id="8IbYY3N8ssp3eKRdi6eT-84" value="" style="shape=partialRectangle;collapsible=0;dropTarget=0;pointerEvents=0;fillColor=none;points=[[0,0.5],[1,0.5]];portConstraint=eastwest;top=0;left=0;right=0;bottom=1;" parent="8IbYY3N8ssp3eKRdi6eT-83" vertex="1">
          <mxGeometry y="30" width="210" height="60" as="geometry" />
        </mxCell>
        <mxCell id="8IbYY3N8ssp3eKRdi6eT-85" value="PK&#xa;FK" style="shape=partialRectangle;overflow=hidden;connectable=0;fillColor=none;top=0;left=0;bottom=0;right=0;fontStyle=1;" parent="8IbYY3N8ssp3eKRdi6eT-84" vertex="1">
          <mxGeometry width="30" height="60" as="geometry">
            <mxRectangle width="30" height="60" as="alternateBounds" />
          </mxGeometry>
        </mxCell>
        <mxCell id="8IbYY3N8ssp3eKRdi6eT-86" value="VulnerabilityID&#xa;CustomerID" style="shape=partialRectangle;overflow=hidden;connectable=0;fillColor=none;top=0;left=0;bottom=0;right=0;align=left;spacingLeft=6;fontStyle=5;" parent="8IbYY3N8ssp3eKRdi6eT-84" vertex="1">
          <mxGeometry x="30" width="180" height="60" as="geometry">
            <mxRectangle width="180" height="60" as="alternateBounds" />
          </mxGeometry>
        </mxCell>
        <mxCell id="8IbYY3N8ssp3eKRdi6eT-87" value="" style="shape=partialRectangle;collapsible=0;dropTarget=0;pointerEvents=0;fillColor=none;points=[[0,0.5],[1,0.5]];portConstraint=eastwest;top=0;left=0;right=0;bottom=0;" parent="8IbYY3N8ssp3eKRdi6eT-83" vertex="1">
          <mxGeometry y="90" width="210" height="130" as="geometry" />
        </mxCell>
        <mxCell id="8IbYY3N8ssp3eKRdi6eT-88" value="" style="shape=partialRectangle;overflow=hidden;connectable=0;fillColor=none;top=0;left=0;bottom=0;right=0;" parent="8IbYY3N8ssp3eKRdi6eT-87" vertex="1">
          <mxGeometry width="30" height="130" as="geometry">
            <mxRectangle width="30" height="130" as="alternateBounds" />
          </mxGeometry>
        </mxCell>
        <mxCell id="8IbYY3N8ssp3eKRdi6eT-89" value="Vulnerability Start Date&#xa;Vulnerability End Date&#xa;Permanent/Temporary Flag&#xa;Type of Vulnerability/Drivers &#xa;Helping Hand Descriptio" style="shape=partialRectangle;overflow=hidden;connectable=0;fillColor=none;top=0;left=0;bottom=0;right=0;align=left;spacingLeft=6;verticalAlign=top;" parent="8IbYY3N8ssp3eKRdi6eT-87" vertex="1">
          <mxGeometry x="30" width="180" height="130" as="geometry">
            <mxRectangle width="180" height="130" as="alternateBounds" />
          </mxGeometry>
        </mxCell>
        <mxCell id="8IbYY3N8ssp3eKRdi6eT-91" value="COMPLAINTS" style="shape=table;startSize=30;container=1;collapsible=1;childLayout=tableLayout;fixedRows=1;rowLines=0;fontStyle=1;align=center;resizeLast=1;fillColor=#d5e8d4;strokeColor=#82b366;" parent="1" vertex="1">
          <mxGeometry x="370" y="340" width="210" height="250" as="geometry" />
        </mxCell>
        <mxCell id="8IbYY3N8ssp3eKRdi6eT-92" value="" style="shape=partialRectangle;collapsible=0;dropTarget=0;pointerEvents=0;fillColor=none;points=[[0,0.5],[1,0.5]];portConstraint=eastwest;top=0;left=0;right=0;bottom=1;" parent="8IbYY3N8ssp3eKRdi6eT-91" vertex="1">
          <mxGeometry y="30" width="210" height="40" as="geometry" />
        </mxCell>
        <mxCell id="8IbYY3N8ssp3eKRdi6eT-93" value="PK&#xa;FK" style="shape=partialRectangle;overflow=hidden;connectable=0;fillColor=none;top=0;left=0;bottom=0;right=0;fontStyle=1;" parent="8IbYY3N8ssp3eKRdi6eT-92" vertex="1">
          <mxGeometry width="30" height="40" as="geometry">
            <mxRectangle width="30" height="40" as="alternateBounds" />
          </mxGeometry>
        </mxCell>
        <mxCell id="8IbYY3N8ssp3eKRdi6eT-94" value="ComplaintsID&#xa;CustomerID" style="shape=partialRectangle;overflow=hidden;connectable=0;fillColor=none;top=0;left=0;bottom=0;right=0;align=left;spacingLeft=6;fontStyle=5;" parent="8IbYY3N8ssp3eKRdi6eT-92" vertex="1">
          <mxGeometry x="30" width="180" height="40" as="geometry">
            <mxRectangle width="180" height="40" as="alternateBounds" />
          </mxGeometry>
        </mxCell>
        <mxCell id="8IbYY3N8ssp3eKRdi6eT-95" value="" style="shape=partialRectangle;collapsible=0;dropTarget=0;pointerEvents=0;fillColor=none;points=[[0,0.5],[1,0.5]];portConstraint=eastwest;top=0;left=0;right=0;bottom=0;" parent="8IbYY3N8ssp3eKRdi6eT-91" vertex="1">
          <mxGeometry y="70" width="210" height="180" as="geometry" />
        </mxCell>
        <mxCell id="8IbYY3N8ssp3eKRdi6eT-96" value="" style="shape=partialRectangle;overflow=hidden;connectable=0;fillColor=none;top=0;left=0;bottom=0;right=0;" parent="8IbYY3N8ssp3eKRdi6eT-95" vertex="1">
          <mxGeometry width="30" height="180" as="geometry">
            <mxRectangle width="30" height="180" as="alternateBounds" />
          </mxGeometry>
        </mxCell>
        <mxCell id="8IbYY3N8ssp3eKRdi6eT-97" value="Complaints Case Type  &#xa;Complaints Type Description &#xa;Complaints Method &#xa;Product Code &#xa;Complaints Root Cause&#xa;Created Date&#xa;Resolved Date &#xa;Date of FOS&#xa;FOS Decision &#xa;Resolved Date &#xa;Value £ " style="shape=partialRectangle;overflow=hidden;connectable=0;fillColor=none;top=0;left=0;bottom=0;right=0;align=left;spacingLeft=6;" parent="8IbYY3N8ssp3eKRdi6eT-95" vertex="1">
          <mxGeometry x="30" width="180" height="180" as="geometry">
            <mxRectangle width="180" height="180" as="alternateBounds" />
          </mxGeometry>
        </mxCell>
        <mxCell id="8IbYY3N8ssp3eKRdi6eT-100" value="QUALITY ASSURANCE" style="shape=table;startSize=30;container=1;collapsible=1;childLayout=tableLayout;fixedRows=1;rowLines=0;fontStyle=1;align=center;resizeLast=1;fillColor=#d5e8d4;strokeColor=#82b366;" parent="1" vertex="1">
          <mxGeometry x="370" y="600" width="230" height="140" as="geometry" />
        </mxCell>
        <mxCell id="8IbYY3N8ssp3eKRdi6eT-101" value="" style="shape=partialRectangle;collapsible=0;dropTarget=0;pointerEvents=0;fillColor=none;points=[[0,0.5],[1,0.5]];portConstraint=eastwest;top=0;left=0;right=0;bottom=1;" parent="8IbYY3N8ssp3eKRdi6eT-100" vertex="1">
          <mxGeometry y="30" width="230" height="30" as="geometry" />
        </mxCell>
        <mxCell id="8IbYY3N8ssp3eKRdi6eT-102" value="PK" style="shape=partialRectangle;overflow=hidden;connectable=0;fillColor=none;top=0;left=0;bottom=0;right=0;fontStyle=1;" parent="8IbYY3N8ssp3eKRdi6eT-101" vertex="1">
          <mxGeometry width="30" height="30" as="geometry">
            <mxRectangle width="30" height="30" as="alternateBounds" />
          </mxGeometry>
        </mxCell>
        <mxCell id="8IbYY3N8ssp3eKRdi6eT-103" value="QualityAssuranceID" style="shape=partialRectangle;overflow=hidden;connectable=0;fillColor=none;top=0;left=0;bottom=0;right=0;align=left;spacingLeft=6;fontStyle=5;" parent="8IbYY3N8ssp3eKRdi6eT-101" vertex="1">
          <mxGeometry x="30" width="200" height="30" as="geometry">
            <mxRectangle width="200" height="30" as="alternateBounds" />
          </mxGeometry>
        </mxCell>
        <mxCell id="8IbYY3N8ssp3eKRdi6eT-104" value="" style="shape=partialRectangle;collapsible=0;dropTarget=0;pointerEvents=0;fillColor=none;points=[[0,0.5],[1,0.5]];portConstraint=eastwest;top=0;left=0;right=0;bottom=0;" parent="8IbYY3N8ssp3eKRdi6eT-100" vertex="1">
          <mxGeometry y="60" width="230" height="70" as="geometry" />
        </mxCell>
        <mxCell id="8IbYY3N8ssp3eKRdi6eT-105" value="" style="shape=partialRectangle;overflow=hidden;connectable=0;fillColor=none;top=0;left=0;bottom=0;right=0;" parent="8IbYY3N8ssp3eKRdi6eT-104" vertex="1">
          <mxGeometry width="30" height="70" as="geometry">
            <mxRectangle width="30" height="70" as="alternateBounds" />
          </mxGeometry>
        </mxCell>
        <mxCell id="8IbYY3N8ssp3eKRdi6eT-106" value="Product Transaction Code &#xa;Quality Assurance Type &#xa;Month Quality Assurance Checked&#xa;Final Out" style="shape=partialRectangle;overflow=hidden;connectable=0;fillColor=none;top=0;left=0;bottom=0;right=0;align=left;spacingLeft=6;" parent="8IbYY3N8ssp3eKRdi6eT-104" vertex="1">
          <mxGeometry x="30" width="200" height="70" as="geometry">
            <mxRectangle width="200" height="70" as="alternateBounds" />
          </mxGeometry>
        </mxCell>
        <mxCell id="8IbYY3N8ssp3eKRdi6eT-107" value="CUSTOMER JOURNEY" style="shape=table;startSize=30;container=1;collapsible=1;childLayout=tableLayout;fixedRows=1;rowLines=0;fontStyle=1;align=center;resizeLast=1;fillColor=#d5e8d4;strokeColor=#82b366;" parent="1" vertex="1">
          <mxGeometry x="700" y="620" width="235.00000000000023" height="150" as="geometry" />
        </mxCell>
        <mxCell id="8IbYY3N8ssp3eKRdi6eT-108" value="" style="shape=partialRectangle;collapsible=0;dropTarget=0;pointerEvents=0;fillColor=none;points=[[0,0.5],[1,0.5]];portConstraint=eastwest;top=0;left=0;right=0;bottom=1;" parent="8IbYY3N8ssp3eKRdi6eT-107" vertex="1">
          <mxGeometry y="30" width="235.00000000000023" height="30" as="geometry" />
        </mxCell>
        <mxCell id="8IbYY3N8ssp3eKRdi6eT-109" value="PK" style="shape=partialRectangle;overflow=hidden;connectable=0;fillColor=none;top=0;left=0;bottom=0;right=0;fontStyle=1;" parent="8IbYY3N8ssp3eKRdi6eT-108" vertex="1">
          <mxGeometry width="30" height="30" as="geometry">
            <mxRectangle width="30" height="30" as="alternateBounds" />
          </mxGeometry>
        </mxCell>
        <mxCell id="8IbYY3N8ssp3eKRdi6eT-110" value="CustomerJourneyID" style="shape=partialRectangle;overflow=hidden;connectable=0;fillColor=none;top=0;left=0;bottom=0;right=0;align=left;spacingLeft=6;fontStyle=5;" parent="8IbYY3N8ssp3eKRdi6eT-108" vertex="1">
          <mxGeometry x="30" width="205.00000000000023" height="30" as="geometry">
            <mxRectangle width="205.00000000000023" height="30" as="alternateBounds" />
          </mxGeometry>
        </mxCell>
        <mxCell id="8IbYY3N8ssp3eKRdi6eT-111" value="" style="shape=partialRectangle;collapsible=0;dropTarget=0;pointerEvents=0;fillColor=none;points=[[0,0.5],[1,0.5]];portConstraint=eastwest;top=0;left=0;right=0;bottom=0;" parent="8IbYY3N8ssp3eKRdi6eT-107" vertex="1">
          <mxGeometry y="60" width="235.00000000000023" height="90" as="geometry" />
        </mxCell>
        <mxCell id="8IbYY3N8ssp3eKRdi6eT-112" value="" style="shape=partialRectangle;overflow=hidden;connectable=0;fillColor=none;top=0;left=0;bottom=0;right=0;" parent="8IbYY3N8ssp3eKRdi6eT-111" vertex="1">
          <mxGeometry width="30" height="90" as="geometry">
            <mxRectangle width="30" height="90" as="alternateBounds" />
          </mxGeometry>
        </mxCell>
        <mxCell id="8IbYY3N8ssp3eKRdi6eT-113" value="Customer Journey Code&#xa;Customer Journey Status &#xa;Customer Journey Source Description  &#xa;Customer Journey Start Date &#xa;Customer Journey End Date" style="shape=partialRectangle;overflow=hidden;connectable=0;fillColor=none;top=0;left=0;bottom=0;right=0;align=left;spacingLeft=6;verticalAlign=top;fontSize=11;spacing=2;" parent="8IbYY3N8ssp3eKRdi6eT-111" vertex="1">
          <mxGeometry x="30" width="205.00000000000023" height="90" as="geometry">
            <mxRectangle width="205.00000000000023" height="90" as="alternateBounds" />
          </mxGeometry>
        </mxCell>
        <mxCell id="yaBfs6Ev_ooIMC5RrYii-1" value="COMMUNICATION" style="shape=table;startSize=30;container=1;collapsible=1;childLayout=tableLayout;fixedRows=1;rowLines=0;fontStyle=1;align=center;resizeLast=1;fillColor=#d5e8d4;strokeColor=#82b366;" vertex="1" parent="1">
          <mxGeometry x="40" y="780" width="260.0000000000002" height="120" as="geometry" />
        </mxCell>
        <mxCell id="yaBfs6Ev_ooIMC5RrYii-2" value="" style="shape=partialRectangle;collapsible=0;dropTarget=0;pointerEvents=0;fillColor=none;points=[[0,0.5],[1,0.5]];portConstraint=eastwest;top=0;left=0;right=0;bottom=1;" vertex="1" parent="yaBfs6Ev_ooIMC5RrYii-1">
          <mxGeometry y="30" width="260.0000000000002" height="30" as="geometry" />
        </mxCell>
        <mxCell id="yaBfs6Ev_ooIMC5RrYii-3" value="PK" style="shape=partialRectangle;overflow=hidden;connectable=0;fillColor=none;top=0;left=0;bottom=0;right=0;fontStyle=1;" vertex="1" parent="yaBfs6Ev_ooIMC5RrYii-2">
          <mxGeometry width="30" height="30" as="geometry">
            <mxRectangle width="30" height="30" as="alternateBounds" />
          </mxGeometry>
        </mxCell>
        <mxCell id="yaBfs6Ev_ooIMC5RrYii-4" value="CommunicationID" style="shape=partialRectangle;overflow=hidden;connectable=0;fillColor=none;top=0;left=0;bottom=0;right=0;align=left;spacingLeft=6;fontStyle=5;" vertex="1" parent="yaBfs6Ev_ooIMC5RrYii-2">
          <mxGeometry x="30" width="230.00000000000023" height="30" as="geometry">
            <mxRectangle width="230.00000000000023" height="30" as="alternateBounds" />
          </mxGeometry>
        </mxCell>
        <mxCell id="yaBfs6Ev_ooIMC5RrYii-5" value="" style="shape=partialRectangle;collapsible=0;dropTarget=0;pointerEvents=0;fillColor=none;points=[[0,0.5],[1,0.5]];portConstraint=eastwest;top=0;left=0;right=0;bottom=0;" vertex="1" parent="yaBfs6Ev_ooIMC5RrYii-1">
          <mxGeometry y="60" width="260.0000000000002" height="60" as="geometry" />
        </mxCell>
        <mxCell id="yaBfs6Ev_ooIMC5RrYii-6" value="" style="shape=partialRectangle;overflow=hidden;connectable=0;fillColor=none;top=0;left=0;bottom=0;right=0;" vertex="1" parent="yaBfs6Ev_ooIMC5RrYii-5">
          <mxGeometry width="30" height="60" as="geometry">
            <mxRectangle width="30" height="60" as="alternateBounds" />
          </mxGeometry>
        </mxCell>
        <mxCell id="yaBfs6Ev_ooIMC5RrYii-7" value="Helping Hand Communication Need &#xa;Helping Hand Communication Type &#xa;Created Date " style="shape=partialRectangle;overflow=hidden;connectable=0;fillColor=none;top=0;left=0;bottom=0;right=0;align=left;spacingLeft=6;verticalAlign=top;" vertex="1" parent="yaBfs6Ev_ooIMC5RrYii-5">
          <mxGeometry x="30" width="230.00000000000023" height="60" as="geometry">
            <mxRectangle width="230.00000000000023" height="60" as="alternateBounds" />
          </mxGeometry>
        </mxCell>
        <mxCell id="yaBfs6Ev_ooIMC5RrYii-8" value="ANNUITY ENCASHMENT REQUEST" style="shape=table;startSize=30;container=1;collapsible=1;childLayout=tableLayout;fixedRows=1;rowLines=0;fontStyle=1;align=center;resizeLast=1;fillColor=#d5e8d4;strokeColor=#82b366;" vertex="1" parent="1">
          <mxGeometry x="20" y="920" width="260.0000000000002" height="150" as="geometry" />
        </mxCell>
        <mxCell id="yaBfs6Ev_ooIMC5RrYii-9" value="" style="shape=partialRectangle;collapsible=0;dropTarget=0;pointerEvents=0;fillColor=none;points=[[0,0.5],[1,0.5]];portConstraint=eastwest;top=0;left=0;right=0;bottom=1;" vertex="1" parent="yaBfs6Ev_ooIMC5RrYii-8">
          <mxGeometry y="30" width="260.0000000000002" height="30" as="geometry" />
        </mxCell>
        <mxCell id="yaBfs6Ev_ooIMC5RrYii-10" value="PK" style="shape=partialRectangle;overflow=hidden;connectable=0;fillColor=none;top=0;left=0;bottom=0;right=0;fontStyle=1;" vertex="1" parent="yaBfs6Ev_ooIMC5RrYii-9">
          <mxGeometry width="30" height="30" as="geometry">
            <mxRectangle width="30" height="30" as="alternateBounds" />
          </mxGeometry>
        </mxCell>
        <mxCell id="yaBfs6Ev_ooIMC5RrYii-11" value="CustomerJourneyID" style="shape=partialRectangle;overflow=hidden;connectable=0;fillColor=none;top=0;left=0;bottom=0;right=0;align=left;spacingLeft=6;fontStyle=5;" vertex="1" parent="yaBfs6Ev_ooIMC5RrYii-9">
          <mxGeometry x="30" width="230.00000000000023" height="30" as="geometry">
            <mxRectangle width="230.00000000000023" height="30" as="alternateBounds" />
          </mxGeometry>
        </mxCell>
        <mxCell id="yaBfs6Ev_ooIMC5RrYii-12" value="" style="shape=partialRectangle;collapsible=0;dropTarget=0;pointerEvents=0;fillColor=none;points=[[0,0.5],[1,0.5]];portConstraint=eastwest;top=0;left=0;right=0;bottom=0;" vertex="1" parent="yaBfs6Ev_ooIMC5RrYii-8">
          <mxGeometry y="60" width="260.0000000000002" height="90" as="geometry" />
        </mxCell>
        <mxCell id="yaBfs6Ev_ooIMC5RrYii-13" value="" style="shape=partialRectangle;overflow=hidden;connectable=0;fillColor=none;top=0;left=0;bottom=0;right=0;" vertex="1" parent="yaBfs6Ev_ooIMC5RrYii-12">
          <mxGeometry width="30" height="90" as="geometry">
            <mxRectangle width="30" height="90" as="alternateBounds" />
          </mxGeometry>
        </mxCell>
        <mxCell id="yaBfs6Ev_ooIMC5RrYii-14" value="Date Requested &#xa;Date Decision Confirmed  &#xa;Status&#xa;Date Money Paid Out&#xa;£ Value " style="shape=partialRectangle;overflow=hidden;connectable=0;fillColor=none;top=0;left=0;bottom=0;right=0;align=left;spacingLeft=6;verticalAlign=top;" vertex="1" parent="yaBfs6Ev_ooIMC5RrYii-12">
          <mxGeometry x="30" width="230.00000000000023" height="90" as="geometry">
            <mxRectangle width="230.00000000000023" height="90" as="alternateBounds" />
          </mxGeometry>
        </mxCell>
        <mxCell id="yaBfs6Ev_ooIMC5RrYii-15" value="CUSTOMER PRODUCT" style="shape=table;startSize=30;container=1;collapsible=1;childLayout=tableLayout;fixedRows=1;rowLines=0;fontStyle=1;align=center;resizeLast=1;fillColor=#d5e8d4;strokeColor=#82b366;" vertex="1" parent="1">
          <mxGeometry x="680" y="80" width="210" height="220" as="geometry" />
        </mxCell>
        <mxCell id="yaBfs6Ev_ooIMC5RrYii-16" value="" style="shape=partialRectangle;collapsible=0;dropTarget=0;pointerEvents=0;fillColor=none;points=[[0,0.5],[1,0.5]];portConstraint=eastwest;top=0;left=0;right=0;bottom=1;" vertex="1" parent="yaBfs6Ev_ooIMC5RrYii-15">
          <mxGeometry y="30" width="210" height="50" as="geometry" />
        </mxCell>
        <mxCell id="yaBfs6Ev_ooIMC5RrYii-17" value="PK&#xa;FK" style="shape=partialRectangle;overflow=hidden;connectable=0;fillColor=none;top=0;left=0;bottom=0;right=0;fontStyle=1;" vertex="1" parent="yaBfs6Ev_ooIMC5RrYii-16">
          <mxGeometry width="30" height="50" as="geometry">
            <mxRectangle width="30" height="50" as="alternateBounds" />
          </mxGeometry>
        </mxCell>
        <mxCell id="yaBfs6Ev_ooIMC5RrYii-18" value="ProductID&#xa;CustomerID" style="shape=partialRectangle;overflow=hidden;connectable=0;fillColor=none;top=0;left=0;bottom=0;right=0;align=left;spacingLeft=6;fontStyle=5;" vertex="1" parent="yaBfs6Ev_ooIMC5RrYii-16">
          <mxGeometry x="30" width="180" height="50" as="geometry">
            <mxRectangle width="180" height="50" as="alternateBounds" />
          </mxGeometry>
        </mxCell>
        <mxCell id="yaBfs6Ev_ooIMC5RrYii-19" value="" style="shape=partialRectangle;collapsible=0;dropTarget=0;pointerEvents=0;fillColor=none;points=[[0,0.5],[1,0.5]];portConstraint=eastwest;top=0;left=0;right=0;bottom=0;" vertex="1" parent="yaBfs6Ev_ooIMC5RrYii-15">
          <mxGeometry y="80" width="210" height="130" as="geometry" />
        </mxCell>
        <mxCell id="yaBfs6Ev_ooIMC5RrYii-20" value="" style="shape=partialRectangle;overflow=hidden;connectable=0;fillColor=none;top=0;left=0;bottom=0;right=0;" vertex="1" parent="yaBfs6Ev_ooIMC5RrYii-19">
          <mxGeometry width="30" height="130" as="geometry">
            <mxRectangle width="30" height="130" as="alternateBounds" />
          </mxGeometry>
        </mxCell>
        <mxCell id="yaBfs6Ev_ooIMC5RrYii-21" value="ProductTransactionCode &#xa;Created Date&#xa;Cancellation Date  &#xa;Value £ &#xa;Expected Premiums Paid &#xa;Payback &#xa;Guaranteed Benefit&#xa;Guaranteed Benefit Claim " style="shape=partialRectangle;overflow=hidden;connectable=0;fillColor=none;top=0;left=0;bottom=0;right=0;align=left;spacingLeft=6;verticalAlign=top;" vertex="1" parent="yaBfs6Ev_ooIMC5RrYii-19">
          <mxGeometry x="30" width="180" height="130" as="geometry">
            <mxRectangle width="180" height="130" as="alternateBounds" />
          </mxGeometry>
        </mxCell>
        <mxCell id="yaBfs6Ev_ooIMC5RrYii-23" value="GRUMBLES" style="shape=table;startSize=30;container=1;collapsible=1;childLayout=tableLayout;fixedRows=1;rowLines=0;fontStyle=1;align=center;resizeLast=1;fillColor=#d5e8d4;strokeColor=#82b366;" vertex="1" parent="1">
          <mxGeometry x="680" y="350" width="210" height="170" as="geometry" />
        </mxCell>
        <mxCell id="yaBfs6Ev_ooIMC5RrYii-24" value="" style="shape=partialRectangle;collapsible=0;dropTarget=0;pointerEvents=0;fillColor=none;points=[[0,0.5],[1,0.5]];portConstraint=eastwest;top=0;left=0;right=0;bottom=1;" vertex="1" parent="yaBfs6Ev_ooIMC5RrYii-23">
          <mxGeometry y="30" width="210" height="60" as="geometry" />
        </mxCell>
        <mxCell id="yaBfs6Ev_ooIMC5RrYii-25" value="PK" style="shape=partialRectangle;overflow=hidden;connectable=0;fillColor=none;top=0;left=0;bottom=0;right=0;fontStyle=1;" vertex="1" parent="yaBfs6Ev_ooIMC5RrYii-24">
          <mxGeometry width="30" height="60" as="geometry">
            <mxRectangle width="30" height="60" as="alternateBounds" />
          </mxGeometry>
        </mxCell>
        <mxCell id="yaBfs6Ev_ooIMC5RrYii-26" value="GrumblesID&#xa;CustomerID&#xa;CustomerJourneyID" style="shape=partialRectangle;overflow=hidden;connectable=0;fillColor=none;top=0;left=0;bottom=0;right=0;align=left;spacingLeft=6;fontStyle=5;" vertex="1" parent="yaBfs6Ev_ooIMC5RrYii-24">
          <mxGeometry x="30" width="180" height="60" as="geometry">
            <mxRectangle width="180" height="60" as="alternateBounds" />
          </mxGeometry>
        </mxCell>
        <mxCell id="yaBfs6Ev_ooIMC5RrYii-27" value="" style="shape=partialRectangle;collapsible=0;dropTarget=0;pointerEvents=0;fillColor=none;points=[[0,0.5],[1,0.5]];portConstraint=eastwest;top=0;left=0;right=0;bottom=0;" vertex="1" parent="yaBfs6Ev_ooIMC5RrYii-23">
          <mxGeometry y="90" width="210" height="80" as="geometry" />
        </mxCell>
        <mxCell id="yaBfs6Ev_ooIMC5RrYii-28" value="" style="shape=partialRectangle;overflow=hidden;connectable=0;fillColor=none;top=0;left=0;bottom=0;right=0;" vertex="1" parent="yaBfs6Ev_ooIMC5RrYii-27">
          <mxGeometry width="30" height="80" as="geometry">
            <mxRectangle width="30" height="80" as="alternateBounds" />
          </mxGeometry>
        </mxCell>
        <mxCell id="yaBfs6Ev_ooIMC5RrYii-29" value="Grumble Type &#xa;Product  Code &#xa;Customer Journey Code&#xa;Created Date" style="shape=partialRectangle;overflow=hidden;connectable=0;fillColor=none;top=0;left=0;bottom=0;right=0;align=left;spacingLeft=6;verticalAlign=top;" vertex="1" parent="yaBfs6Ev_ooIMC5RrYii-27">
          <mxGeometry x="30" width="180" height="80" as="geometry">
            <mxRectangle width="180" height="80" as="alternateBounds" />
          </mxGeometry>
        </mxCell>
        <mxCell id="yaBfs6Ev_ooIMC5RrYii-30" value="PREMIUMS" style="shape=table;startSize=30;container=1;collapsible=1;childLayout=tableLayout;fixedRows=1;rowLines=0;fontStyle=1;align=center;resizeLast=1;fillColor=#d5e8d4;strokeColor=#82b366;" vertex="1" parent="1">
          <mxGeometry x="1025" y="260" width="210" height="170" as="geometry" />
        </mxCell>
        <mxCell id="yaBfs6Ev_ooIMC5RrYii-31" value="" style="shape=partialRectangle;collapsible=0;dropTarget=0;pointerEvents=0;fillColor=none;points=[[0,0.5],[1,0.5]];portConstraint=eastwest;top=0;left=0;right=0;bottom=1;" vertex="1" parent="yaBfs6Ev_ooIMC5RrYii-30">
          <mxGeometry y="30" width="210" height="60" as="geometry" />
        </mxCell>
        <mxCell id="yaBfs6Ev_ooIMC5RrYii-32" value="PK&#xa;FK&#xa;FK" style="shape=partialRectangle;overflow=hidden;connectable=0;fillColor=none;top=0;left=0;bottom=0;right=0;fontStyle=1;" vertex="1" parent="yaBfs6Ev_ooIMC5RrYii-31">
          <mxGeometry width="30" height="60" as="geometry">
            <mxRectangle width="30" height="60" as="alternateBounds" />
          </mxGeometry>
        </mxCell>
        <mxCell id="yaBfs6Ev_ooIMC5RrYii-33" value="PremiumsID&#xa;CustomerID&#xa;ProductID" style="shape=partialRectangle;overflow=hidden;connectable=0;fillColor=none;top=0;left=0;bottom=0;right=0;align=left;spacingLeft=6;fontStyle=5;" vertex="1" parent="yaBfs6Ev_ooIMC5RrYii-31">
          <mxGeometry x="30" width="180" height="60" as="geometry">
            <mxRectangle width="180" height="60" as="alternateBounds" />
          </mxGeometry>
        </mxCell>
        <mxCell id="yaBfs6Ev_ooIMC5RrYii-34" value="" style="shape=partialRectangle;collapsible=0;dropTarget=0;pointerEvents=0;fillColor=none;points=[[0,0.5],[1,0.5]];portConstraint=eastwest;top=0;left=0;right=0;bottom=0;" vertex="1" parent="yaBfs6Ev_ooIMC5RrYii-30">
          <mxGeometry y="90" width="210" height="80" as="geometry" />
        </mxCell>
        <mxCell id="yaBfs6Ev_ooIMC5RrYii-35" value="" style="shape=partialRectangle;overflow=hidden;connectable=0;fillColor=none;top=0;left=0;bottom=0;right=0;" vertex="1" parent="yaBfs6Ev_ooIMC5RrYii-34">
          <mxGeometry width="30" height="80" as="geometry">
            <mxRectangle width="30" height="80" as="alternateBounds" />
          </mxGeometry>
        </mxCell>
        <mxCell id="yaBfs6Ev_ooIMC5RrYii-36" value="Premium Code &#xa;Product Transaction Code &#xa;Created Date&#xa;Value £ " style="shape=partialRectangle;overflow=hidden;connectable=0;fillColor=none;top=0;left=0;bottom=0;right=0;align=left;spacingLeft=6;verticalAlign=top;" vertex="1" parent="yaBfs6Ev_ooIMC5RrYii-34">
          <mxGeometry x="30" width="180" height="80" as="geometry">
            <mxRectangle width="180" height="80" as="alternateBounds" />
          </mxGeometry>
        </mxCell>
        <mxCell id="yaBfs6Ev_ooIMC5RrYii-37" value="TELEPHONY" style="shape=table;startSize=30;container=1;collapsible=1;childLayout=tableLayout;fixedRows=1;rowLines=0;fontStyle=1;align=center;resizeLast=1;fillColor=#d5e8d4;strokeColor=#82b366;" vertex="1" parent="1">
          <mxGeometry x="360" y="775" width="210" height="160.00000000000023" as="geometry" />
        </mxCell>
        <mxCell id="yaBfs6Ev_ooIMC5RrYii-38" value="" style="shape=partialRectangle;collapsible=0;dropTarget=0;pointerEvents=0;fillColor=none;points=[[0,0.5],[1,0.5]];portConstraint=eastwest;top=0;left=0;right=0;bottom=1;" vertex="1" parent="yaBfs6Ev_ooIMC5RrYii-37">
          <mxGeometry y="30" width="210" height="40" as="geometry" />
        </mxCell>
        <mxCell id="yaBfs6Ev_ooIMC5RrYii-39" value="PK&#xa;FK" style="shape=partialRectangle;overflow=hidden;connectable=0;fillColor=none;top=0;left=0;bottom=0;right=0;fontStyle=1;" vertex="1" parent="yaBfs6Ev_ooIMC5RrYii-38">
          <mxGeometry width="30" height="40" as="geometry">
            <mxRectangle width="30" height="40" as="alternateBounds" />
          </mxGeometry>
        </mxCell>
        <mxCell id="yaBfs6Ev_ooIMC5RrYii-40" value="CallID&#xa;CustomerID" style="shape=partialRectangle;overflow=hidden;connectable=0;fillColor=none;top=0;left=0;bottom=0;right=0;align=left;spacingLeft=6;fontStyle=5;" vertex="1" parent="yaBfs6Ev_ooIMC5RrYii-38">
          <mxGeometry x="30" width="180" height="40" as="geometry">
            <mxRectangle width="180" height="40" as="alternateBounds" />
          </mxGeometry>
        </mxCell>
        <mxCell id="yaBfs6Ev_ooIMC5RrYii-41" value="" style="shape=partialRectangle;collapsible=0;dropTarget=0;pointerEvents=0;fillColor=none;points=[[0,0.5],[1,0.5]];portConstraint=eastwest;top=0;left=0;right=0;bottom=0;" vertex="1" parent="yaBfs6Ev_ooIMC5RrYii-37">
          <mxGeometry y="70" width="210" height="80" as="geometry" />
        </mxCell>
        <mxCell id="yaBfs6Ev_ooIMC5RrYii-42" value="" style="shape=partialRectangle;overflow=hidden;connectable=0;fillColor=none;top=0;left=0;bottom=0;right=0;" vertex="1" parent="yaBfs6Ev_ooIMC5RrYii-41">
          <mxGeometry width="30" height="80" as="geometry">
            <mxRectangle width="30" height="80" as="alternateBounds" />
          </mxGeometry>
        </mxCell>
        <mxCell id="yaBfs6Ev_ooIMC5RrYii-43" value="Talk Time&#xa;Hold Time &#xa;Wrap Time&#xa;Time To Asnwer &#xa;Telephone Date " style="shape=partialRectangle;overflow=hidden;connectable=0;fillColor=none;top=0;left=0;bottom=0;right=0;align=left;spacingLeft=6;verticalAlign=top;" vertex="1" parent="yaBfs6Ev_ooIMC5RrYii-41">
          <mxGeometry x="30" width="180" height="80" as="geometry">
            <mxRectangle width="180" height="80" as="alternateBounds" />
          </mxGeometry>
        </mxCell>
        <mxCell id="yaBfs6Ev_ooIMC5RrYii-44" value="PSAT" style="shape=table;startSize=30;container=1;collapsible=1;childLayout=tableLayout;fixedRows=1;rowLines=0;fontStyle=1;align=center;resizeLast=1;fillColor=#d5e8d4;strokeColor=#82b366;" vertex="1" parent="1">
          <mxGeometry x="40" y="500" width="160.00000000000023" height="120.00000000000068" as="geometry" />
        </mxCell>
        <mxCell id="yaBfs6Ev_ooIMC5RrYii-45" value="" style="shape=partialRectangle;collapsible=0;dropTarget=0;pointerEvents=0;fillColor=none;points=[[0,0.5],[1,0.5]];portConstraint=eastwest;top=0;left=0;right=0;bottom=1;" vertex="1" parent="yaBfs6Ev_ooIMC5RrYii-44">
          <mxGeometry y="30" width="160.00000000000023" height="30" as="geometry" />
        </mxCell>
        <mxCell id="yaBfs6Ev_ooIMC5RrYii-46" value="PK" style="shape=partialRectangle;overflow=hidden;connectable=0;fillColor=none;top=0;left=0;bottom=0;right=0;fontStyle=1;" vertex="1" parent="yaBfs6Ev_ooIMC5RrYii-45">
          <mxGeometry width="30" height="30" as="geometry">
            <mxRectangle width="30" height="30" as="alternateBounds" />
          </mxGeometry>
        </mxCell>
        <mxCell id="yaBfs6Ev_ooIMC5RrYii-47" value="PastID" style="shape=partialRectangle;overflow=hidden;connectable=0;fillColor=none;top=0;left=0;bottom=0;right=0;align=left;spacingLeft=6;fontStyle=5;" vertex="1" parent="yaBfs6Ev_ooIMC5RrYii-45">
          <mxGeometry x="30" width="130.00000000000023" height="30" as="geometry">
            <mxRectangle width="130.00000000000023" height="30" as="alternateBounds" />
          </mxGeometry>
        </mxCell>
        <mxCell id="yaBfs6Ev_ooIMC5RrYii-48" value="" style="shape=partialRectangle;collapsible=0;dropTarget=0;pointerEvents=0;fillColor=none;points=[[0,0.5],[1,0.5]];portConstraint=eastwest;top=0;left=0;right=0;bottom=0;" vertex="1" parent="yaBfs6Ev_ooIMC5RrYii-44">
          <mxGeometry y="60" width="160.00000000000023" height="60" as="geometry" />
        </mxCell>
        <mxCell id="yaBfs6Ev_ooIMC5RrYii-49" value="" style="shape=partialRectangle;overflow=hidden;connectable=0;fillColor=none;top=0;left=0;bottom=0;right=0;" vertex="1" parent="yaBfs6Ev_ooIMC5RrYii-48">
          <mxGeometry width="30" height="60" as="geometry">
            <mxRectangle width="30" height="60" as="alternateBounds" />
          </mxGeometry>
        </mxCell>
        <mxCell id="yaBfs6Ev_ooIMC5RrYii-50" value="PSAT Score&#xa;Source of Survey&#xa;Created Date" style="shape=partialRectangle;overflow=hidden;connectable=0;fillColor=none;top=0;left=0;bottom=0;right=0;align=left;spacingLeft=6;verticalAlign=top;" vertex="1" parent="yaBfs6Ev_ooIMC5RrYii-48">
          <mxGeometry x="30" width="130.00000000000023" height="60" as="geometry">
            <mxRectangle width="130.00000000000023" height="60" as="alternateBounds" />
          </mxGeometry>
        </mxCell>
        <mxCell id="yaBfs6Ev_ooIMC5RrYii-51" value="SCAMS" style="shape=table;startSize=30;container=1;collapsible=1;childLayout=tableLayout;fixedRows=1;rowLines=0;fontStyle=1;align=center;resizeLast=1;fillColor=#d5e8d4;strokeColor=#82b366;" vertex="1" parent="1">
          <mxGeometry x="90" y="640" width="220" height="120.00000000000045" as="geometry" />
        </mxCell>
        <mxCell id="yaBfs6Ev_ooIMC5RrYii-52" value="" style="shape=partialRectangle;collapsible=0;dropTarget=0;pointerEvents=0;fillColor=none;points=[[0,0.5],[1,0.5]];portConstraint=eastwest;top=0;left=0;right=0;bottom=1;" vertex="1" parent="yaBfs6Ev_ooIMC5RrYii-51">
          <mxGeometry y="30" width="220" height="30" as="geometry" />
        </mxCell>
        <mxCell id="yaBfs6Ev_ooIMC5RrYii-53" value="PK" style="shape=partialRectangle;overflow=hidden;connectable=0;fillColor=none;top=0;left=0;bottom=0;right=0;fontStyle=1;" vertex="1" parent="yaBfs6Ev_ooIMC5RrYii-52">
          <mxGeometry width="30" height="30" as="geometry">
            <mxRectangle width="30" height="30" as="alternateBounds" />
          </mxGeometry>
        </mxCell>
        <mxCell id="yaBfs6Ev_ooIMC5RrYii-54" value="PastID" style="shape=partialRectangle;overflow=hidden;connectable=0;fillColor=none;top=0;left=0;bottom=0;right=0;align=left;spacingLeft=6;fontStyle=5;" vertex="1" parent="yaBfs6Ev_ooIMC5RrYii-52">
          <mxGeometry x="30" width="190" height="30" as="geometry">
            <mxRectangle width="190" height="30" as="alternateBounds" />
          </mxGeometry>
        </mxCell>
        <mxCell id="yaBfs6Ev_ooIMC5RrYii-55" value="" style="shape=partialRectangle;collapsible=0;dropTarget=0;pointerEvents=0;fillColor=none;points=[[0,0.5],[1,0.5]];portConstraint=eastwest;top=0;left=0;right=0;bottom=0;" vertex="1" parent="yaBfs6Ev_ooIMC5RrYii-51">
          <mxGeometry y="60" width="220" height="60" as="geometry" />
        </mxCell>
        <mxCell id="yaBfs6Ev_ooIMC5RrYii-56" value="" style="shape=partialRectangle;overflow=hidden;connectable=0;fillColor=none;top=0;left=0;bottom=0;right=0;" vertex="1" parent="yaBfs6Ev_ooIMC5RrYii-55">
          <mxGeometry width="30" height="60" as="geometry">
            <mxRectangle width="30" height="60" as="alternateBounds" />
          </mxGeometry>
        </mxCell>
        <mxCell id="yaBfs6Ev_ooIMC5RrYii-57" value="Financial Crime Indicator&#xa;Financial Crime Indicator Type" style="shape=partialRectangle;overflow=hidden;connectable=0;fillColor=none;top=0;left=0;bottom=0;right=0;align=left;spacingLeft=6;verticalAlign=top;" vertex="1" parent="yaBfs6Ev_ooIMC5RrYii-55">
          <mxGeometry x="30" width="190" height="60" as="geometry">
            <mxRectangle width="190" height="60" as="alternateBounds" />
          </mxGeometry>
        </mxCell>
        <mxCell id="yaBfs6Ev_ooIMC5RrYii-58" value="SKILLS AND CAPABLITY " style="shape=table;startSize=30;container=1;collapsible=1;childLayout=tableLayout;fixedRows=1;rowLines=0;fontStyle=1;align=center;resizeLast=1;fillColor=#d5e8d4;strokeColor=#82b366;" vertex="1" parent="1">
          <mxGeometry x="365" y="960" width="220" height="130.00000000000045" as="geometry" />
        </mxCell>
        <mxCell id="yaBfs6Ev_ooIMC5RrYii-59" value="" style="shape=partialRectangle;collapsible=0;dropTarget=0;pointerEvents=0;fillColor=none;points=[[0,0.5],[1,0.5]];portConstraint=eastwest;top=0;left=0;right=0;bottom=1;" vertex="1" parent="yaBfs6Ev_ooIMC5RrYii-58">
          <mxGeometry y="30" width="220" height="30" as="geometry" />
        </mxCell>
        <mxCell id="yaBfs6Ev_ooIMC5RrYii-60" value="PK" style="shape=partialRectangle;overflow=hidden;connectable=0;fillColor=none;top=0;left=0;bottom=0;right=0;fontStyle=1;" vertex="1" parent="yaBfs6Ev_ooIMC5RrYii-59">
          <mxGeometry width="30" height="30" as="geometry">
            <mxRectangle width="30" height="30" as="alternateBounds" />
          </mxGeometry>
        </mxCell>
        <mxCell id="yaBfs6Ev_ooIMC5RrYii-61" value="PastID" style="shape=partialRectangle;overflow=hidden;connectable=0;fillColor=none;top=0;left=0;bottom=0;right=0;align=left;spacingLeft=6;fontStyle=5;" vertex="1" parent="yaBfs6Ev_ooIMC5RrYii-59">
          <mxGeometry x="30" width="190" height="30" as="geometry">
            <mxRectangle width="190" height="30" as="alternateBounds" />
          </mxGeometry>
        </mxCell>
        <mxCell id="yaBfs6Ev_ooIMC5RrYii-62" value="" style="shape=partialRectangle;collapsible=0;dropTarget=0;pointerEvents=0;fillColor=none;points=[[0,0.5],[1,0.5]];portConstraint=eastwest;top=0;left=0;right=0;bottom=0;" vertex="1" parent="yaBfs6Ev_ooIMC5RrYii-58">
          <mxGeometry y="60" width="220" height="70" as="geometry" />
        </mxCell>
        <mxCell id="yaBfs6Ev_ooIMC5RrYii-63" value="" style="shape=partialRectangle;overflow=hidden;connectable=0;fillColor=none;top=0;left=0;bottom=0;right=0;" vertex="1" parent="yaBfs6Ev_ooIMC5RrYii-62">
          <mxGeometry width="30" height="70" as="geometry">
            <mxRectangle width="30" height="70" as="alternateBounds" />
          </mxGeometry>
        </mxCell>
        <mxCell id="yaBfs6Ev_ooIMC5RrYii-64" value="Measure Name &#xa;Total No Employees Assigned &#xa;Total No Employees Completed " style="shape=partialRectangle;overflow=hidden;connectable=0;fillColor=none;top=0;left=0;bottom=0;right=0;align=left;spacingLeft=6;verticalAlign=top;" vertex="1" parent="yaBfs6Ev_ooIMC5RrYii-62">
          <mxGeometry x="30" width="190" height="70" as="geometry">
            <mxRectangle width="190" height="70" as="alternateBounds" />
          </mxGeometry>
        </mxCell>
        <mxCell id="yaBfs6Ev_ooIMC5RrYii-68" value="" style="edgeStyle=entityRelationEdgeStyle;fontSize=12;html=1;endArrow=ERmandOne;rounded=0;entryX=0;entryY=0.5;entryDx=0;entryDy=0;exitX=1;exitY=0.5;exitDx=0;exitDy=0;" edge="1" parent="1" source="8IbYY3N8ssp3eKRdi6eT-50" target="8IbYY3N8ssp3eKRdi6eT-87">
          <mxGeometry width="100" height="100" relative="1" as="geometry">
            <mxPoint x="280" y="310" as="sourcePoint" />
            <mxPoint x="380" y="210" as="targetPoint" />
          </mxGeometry>
        </mxCell>
        <mxCell id="yaBfs6Ev_ooIMC5RrYii-69" value="" style="edgeStyle=entityRelationEdgeStyle;fontSize=12;html=1;endArrow=ERzeroToMany;endFill=1;rounded=0;" edge="1" parent="1" target="yaBfs6Ev_ooIMC5RrYii-19">
          <mxGeometry width="100" height="100" relative="1" as="geometry">
            <mxPoint x="280" y="300" as="sourcePoint" />
            <mxPoint x="380" y="240" as="targetPoint" />
          </mxGeometry>
        </mxCell>
        <mxCell id="yaBfs6Ev_ooIMC5RrYii-70" value="" style="edgeStyle=entityRelationEdgeStyle;fontSize=12;html=1;endArrow=ERzeroToMany;startArrow=ERmandOne;rounded=0;entryX=1;entryY=0.5;entryDx=0;entryDy=0;exitX=0;exitY=0.5;exitDx=0;exitDy=0;" edge="1" parent="1" source="8IbYY3N8ssp3eKRdi6eT-33" target="yaBfs6Ev_ooIMC5RrYii-19">
          <mxGeometry width="100" height="100" relative="1" as="geometry">
            <mxPoint x="1080" y="230" as="sourcePoint" />
            <mxPoint x="470" y="470" as="targetPoint" />
          </mxGeometry>
        </mxCell>
        <mxCell id="yaBfs6Ev_ooIMC5RrYii-71" value="" style="edgeStyle=entityRelationEdgeStyle;fontSize=12;html=1;endArrow=ERzeroToMany;endFill=1;rounded=0;exitX=1;exitY=0.5;exitDx=0;exitDy=0;entryX=0;entryY=0.5;entryDx=0;entryDy=0;" edge="1" parent="1" source="8IbYY3N8ssp3eKRdi6eT-53" target="8IbYY3N8ssp3eKRdi6eT-95">
          <mxGeometry width="100" height="100" relative="1" as="geometry">
            <mxPoint x="370" y="570" as="sourcePoint" />
            <mxPoint x="470" y="470" as="targetPoint" />
          </mxGeometry>
        </mxCell>
        <mxCell id="yaBfs6Ev_ooIMC5RrYii-72" value="" style="edgeStyle=entityRelationEdgeStyle;fontSize=12;html=1;endArrow=ERmandOne;startArrow=ERmandOne;rounded=0;exitX=1;exitY=0.5;exitDx=0;exitDy=0;entryX=-0.005;entryY=0.914;entryDx=0;entryDy=0;entryPerimeter=0;" edge="1" parent="1" source="yaBfs6Ev_ooIMC5RrYii-27" target="8IbYY3N8ssp3eKRdi6eT-33">
          <mxGeometry width="100" height="100" relative="1" as="geometry">
            <mxPoint x="370" y="570" as="sourcePoint" />
            <mxPoint x="1000" y="220" as="targetPoint" />
          </mxGeometry>
        </mxCell>
        <mxCell id="yaBfs6Ev_ooIMC5RrYii-73" value="" style="edgeStyle=entityRelationEdgeStyle;fontSize=12;html=1;endArrow=ERzeroToMany;startArrow=ERmandOne;rounded=0;exitX=1.002;exitY=0.756;exitDx=0;exitDy=0;exitPerimeter=0;" edge="1" parent="1" source="yaBfs6Ev_ooIMC5RrYii-19">
          <mxGeometry width="100" height="100" relative="1" as="geometry">
            <mxPoint x="965" y="620" as="sourcePoint" />
            <mxPoint x="1065" y="520" as="targetPoint" />
          </mxGeometry>
        </mxCell>
        <mxCell id="yaBfs6Ev_ooIMC5RrYii-75" value="" style="edgeStyle=entityRelationEdgeStyle;fontSize=12;html=1;endArrow=ERzeroToMany;startArrow=ERzeroToOne;rounded=0;entryX=0.005;entryY=0.389;entryDx=0;entryDy=0;entryPerimeter=0;exitX=0.988;exitY=1.029;exitDx=0;exitDy=0;exitPerimeter=0;" edge="1" parent="1" source="8IbYY3N8ssp3eKRdi6eT-53" target="yaBfs6Ev_ooIMC5RrYii-34">
          <mxGeometry width="100" height="100" relative="1" as="geometry">
            <mxPoint x="490" y="570" as="sourcePoint" />
            <mxPoint x="590" y="470" as="targetPoint" />
          </mxGeometry>
        </mxCell>
        <mxCell id="yaBfs6Ev_ooIMC5RrYii-77" value="" style="edgeStyle=entityRelationEdgeStyle;fontSize=12;html=1;endArrow=ERzeroToMany;endFill=1;rounded=0;exitX=1.009;exitY=0.806;exitDx=0;exitDy=0;exitPerimeter=0;" edge="1" parent="1" source="8IbYY3N8ssp3eKRdi6eT-53" target="yaBfs6Ev_ooIMC5RrYii-41">
          <mxGeometry width="100" height="100" relative="1" as="geometry">
            <mxPoint x="490" y="670" as="sourcePoint" />
            <mxPoint x="590" y="570" as="targetPoint" />
          </mxGeometry>
        </mxCell>
        <mxCell id="yaBfs6Ev_ooIMC5RrYii-78" value="" style="edgeStyle=entityRelationEdgeStyle;fontSize=12;html=1;endArrow=ERzeroToMany;startArrow=ERmandOne;rounded=0;entryX=0;entryY=0.5;entryDx=0;entryDy=0;" edge="1" parent="1" target="yaBfs6Ev_ooIMC5RrYii-27">
          <mxGeometry width="100" height="100" relative="1" as="geometry">
            <mxPoint x="600" y="680" as="sourcePoint" />
            <mxPoint x="700" y="580" as="targetPoint" />
          </mxGeometry>
        </mxCell>
        <mxCell id="yaBfs6Ev_ooIMC5RrYii-79" value="" style="edgeStyle=entityRelationEdgeStyle;fontSize=12;html=1;endArrow=ERzeroToMany;endFill=1;rounded=0;exitX=1;exitY=0.5;exitDx=0;exitDy=0;entryX=0;entryY=0.5;entryDx=0;entryDy=0;" edge="1" parent="1" target="yaBfs6Ev_ooIMC5RrYii-24">
          <mxGeometry width="100" height="100" relative="1" as="geometry">
            <mxPoint x="279.9999999999998" y="320" as="sourcePoint" />
            <mxPoint x="369.9999999999998" y="484.9999999999998" as="targetPoint" />
          </mxGeometry>
        </mxCell>
        <mxCell id="yaBfs6Ev_ooIMC5RrYii-80" value="" style="edgeStyle=entityRelationEdgeStyle;fontSize=12;html=1;endArrow=ERone;endFill=1;rounded=0;exitX=0.5;exitY=1;exitDx=0;exitDy=0;entryX=0.5;entryY=0;entryDx=0;entryDy=0;" edge="1" parent="1" source="8IbYY3N8ssp3eKRdi6eT-49" target="yaBfs6Ev_ooIMC5RrYii-44">
          <mxGeometry width="100" height="100" relative="1" as="geometry">
            <mxPoint x="490" y="560" as="sourcePoint" />
            <mxPoint x="590" y="460" as="targetPoint" />
          </mxGeometry>
        </mxCell>
        <mxCell id="yaBfs6Ev_ooIMC5RrYii-84" value="" style="edgeStyle=entityRelationEdgeStyle;fontSize=12;html=1;endArrow=ERzeroToMany;endFill=1;rounded=0;entryX=1.017;entryY=0.251;entryDx=0;entryDy=0;entryPerimeter=0;" edge="1" parent="1" source="8IbYY3N8ssp3eKRdi6eT-67" target="8IbYY3N8ssp3eKRdi6eT-111">
          <mxGeometry width="100" height="100" relative="1" as="geometry">
            <mxPoint x="660" y="700" as="sourcePoint" />
            <mxPoint x="760" y="600" as="targetPoint" />
          </mxGeometry>
        </mxCell>
        <mxCell id="yaBfs6Ev_ooIMC5RrYii-86" value="" style="edgeStyle=entityRelationEdgeStyle;fontSize=12;html=1;endArrow=ERmandOne;startArrow=ERmandOne;rounded=0;entryX=1.002;entryY=0.8;entryDx=0;entryDy=0;entryPerimeter=0;" edge="1" parent="1" source="8IbYY3N8ssp3eKRdi6eT-107" target="yaBfs6Ev_ooIMC5RrYii-27">
          <mxGeometry width="100" height="100" relative="1" as="geometry">
            <mxPoint x="660" y="700" as="sourcePoint" />
            <mxPoint x="760" y="600" as="targetPoint" />
          </mxGeometry>
        </mxCell>
        <mxCell id="yaBfs6Ev_ooIMC5RrYii-90" style="edgeStyle=orthogonalEdgeStyle;rounded=0;orthogonalLoop=1;jettySize=auto;html=1;entryX=0;entryY=0.5;entryDx=0;entryDy=0;fontSize=11;endArrow=oval;endFill=0;" edge="1" parent="1" source="8IbYY3N8ssp3eKRdi6eT-53" target="yaBfs6Ev_ooIMC5RrYii-5">
          <mxGeometry relative="1" as="geometry" />
        </mxCell>
      </root>
    </mxGraphModel>
  </diagram>
</mxfile>
